<svg width="170" height="107" viewBox="0 0 170 107" fill="none" xmlns="http://www.w3.org/2000/svg">
  <path d="M10.2 88.3C17.9 99.7 29.3 105.4 44.1 105.4C58.9 105.4 70.3 99.7 78 88.3C83.6 79.4 86.5 67.8 86.5 53.4C86.5 37.8 83.6 26.8 78 18.5C70.5 7 59.1 1.4 44.1 1.4C29.1 1.4 17.7 7 10.2 18.5C4.4 27.3 1.5 38.9 1.5 53.4C1.5 67.8 4.4 79.4 10.2 88.3ZM27.2 53.4C27.2 44.4 28.4 37.5 30.7 32.6C34 27.7 44.1 24.2 44.1 24.2C54.1 27.7 57.4 32.6 57.4 32.6C59.8 37.4 61.1 44.3 61.1 53.4C61.1 62.4 59.8 69.3 57.4 74.1C54.1 79 44.1 82.5 44.1 82.5C34 79 27.2 62.3 27.2 53.4ZM140 4C115 4 100 15 95 35V85C95 95 103 103 113 103H135C145 103 153 95 153 85V65C153 55 145 47 135 47H105M113 65H135V85H113V65Z" stroke="#8B8B8B" stroke-width="2" stroke-linecap="round" stroke-linejoin="round"/>
</svg>