<svg width="170" height="107" viewBox="0 0 170 107" fill="none" xmlns="http://www.w3.org/2000/svg">
<path d="M10.2664 88.3024 L10.2714 88.3098 C17.9748 99.7108 29.3002 105.4000 44.1000 105.4000 C58.9969 105.4000 70.3737 99.7129 78.0786 88.3098 L78.0835 88.3024 C83.6356 79.4866 86.5062 67.8231 86.5062 53.3999 C86.5062 37.8219 83.6356 26.8749 78.0844 18.4987 C70.5759 7.0828 59.1906 1.3999 44.1000 1.3999 C29.1064 1.3999 17.7725 7.0851 10.2655 18.4989 C4.4231 27.3145 1.5500 38.9775 1.5500 53.3999 C1.5500 67.8231 4.4235 79.4866 10.2664 88.3024 Z M27.2500 53.3999 C27.2500 44.4755 28.4422 37.5964 30.7498 32.6864 C32.1833 29.8232 34.0060 27.7289 36.1965 26.3454 C38.3879 24.9614 41.0087 24.2499 44.1000 24.2499 C47.1913 24.2499 49.8121 24.2499 52.0035 26.3454 C54.1967 27.7306 56.0212 29.8284 57.4556 32.6971 C59.8558 37.4975 61.1000 44.3688 61.1000 53.3999 C61.1000 62.4310 59.8558 69.3023 57.4556 74.1027 C56.0212 76.9714 54.1967 79.0692 52.0035 80.4544 C49.8121 81.8384 47.1913 82.5499 44.1000 82.5499 C41.0087 82.5499 38.3879 81.8384 36.1965 80.4544 C34.0060 79.0710 32.1833 76.9766 30.7498 74.1134 C28.4422 69.2034 27.2500 62.3243 27.2500 53.3999 Z M90.0000 4.0000 H150.0000 V19.0000 H105.0000 V46.0000 H150.0000 V103.0000 H90.0000 Z M105.0000 61.0000 H135.0000 V88.0000 H105.0000 Z" stroke="url(#paint0_linear)" stroke-width="2"/>
<defs>
<linearGradient id="paint0_linear" x1="83.5" y1="-14.0001" x2="83.5" y2="82.9999" gradientUnits="userSpaceOnUse">
<stop stop-color="#8B8B8B"/>
<stop offset="1" stop-color="#8B8B8B" stop-opacity="0"/>
</linearGradient>
</defs>
</svg>