<svg width="170" height="107" viewBox="0 0 170 107" fill="none" xmlns="http://www.w3.org/2000/svg">
  <path d="M10.2 88.3C17.9 99.7 29.3 105.4 44.1 105.4C58.9 105.4 70.3 99.7 78 88.3C83.6 79.4 86.5 67.8 86.5 53.4C86.5 37.8 83.6 26.8 78 18.5C70.5 7 59.1 1.4 44.1 1.4C29.1 1.4 17.7 7 10.2 18.5C4.4 27.3 1.5 38.9 1.5 53.4C1.5 67.8 4.4 79.4 10.2 88.3ZM27.2 53.4C27.2 44.4 28.4 37.5 30.7 32.6C34 27.7 44.1 24.2 44.1 24.2C54.1 27.7 57.4 32.6 57.4 32.6C59.8 37.4 61.1 44.3 61.1 53.4C61.1 62.4 59.8 69.3 57.4 74.1C54.1 79 44.1 82.5 44.1 82.5C34 79 27.2 62.3 27.2 53.4ZM110 4H138C148 4 153 10 153 20V40C153 50 148 54 138 54H110C100 54 95 50 95 40V20C95 10 100 4 110 4ZM105 54H143C152 54 157 60 157 70V87C157 97 152 103 143 103H105C96 103 91 97 91 87V70C91 60 96 54 105 54Z" stroke="#8B8B8B" stroke-width="2" stroke-linecap="round" stroke-linejoin="round"/>
</svg>