<svg width="170" height="107" viewBox="0 0 170 107" fill="none" xmlns="http://www.w3.org/2000/svg">
<path d="M10.2664 88.3024 C17.9748 99.7108 29.3002 105.4 44.1 105.4 C58.9969 105.4 70.3737 99.7129 78.0786 88.3098 C83.6356 79.4866 86.5062 67.8231 86.5062 53.3999 C86.5062 37.8219 83.6356 26.8749 78.0844 18.4987 C70.5759 7.08284 59.1906 1.3999 44.1 1.3999 C29.1064 1.3999 17.7725 7.0851 10.2655 18.4989 C4.42313 27.3145 1.54999 38.9775 1.54999 53.3999 C1.54999 67.8231 4.42346 79.4866 10.2664 88.3024 Z M27.25 53.3999 C27.25 44.4755 28.4422 37.5964 30.7498 32.6864 C34.006 27.7289 44.1 24.2499 44.1 24.2499 C44.1 24.2499 54.1967 27.7306 57.4556 32.6971 C59.8558 37.4975 61.1 44.3688 61.1 53.3999 C61.1 62.4310 59.8558 69.3023 57.4556 74.1027 C54.1967 79.0692 44.1 82.5499 44.1 82.5499 C34.006 79.0710 27.25 62.3243 27.25 53.3999 Z M105 4 H140 A10 10 0 0 1 150 14 V43 A10 10 0 0 1 140 53 H135 V53 A10 10 0 0 1 150 63 V93 A10 10 0 0 1 140 103 H105 A10 10 0 0 1 95 93 V63 A10 10 0 0 1 110 53 H110 V53 A10 10 0 0 1 95 43 V14 A10 10 0 0 1 105 4 Z M112 18 V40 H133 V18 Z M112 66 V90 H133 V66 Z" stroke="url(#paint0_linear)" stroke-width="2"/>
<defs><linearGradient id="paint0_linear" x1="83.5" y1="-14" x2="83.5" y2="83" gradientUnits="userSpaceOnUse"><stop stop-color="#8B8B8B"/><stop offset="1" stop-color="#8B8B8B" stop-opacity="0"/></linearGradient></defs>
</svg>